HIERARCHY
ROOT SimulationBone
{
	OFFSET 0.000000 0.000000 0.000000
	CHANNELS 6 Xposition Yposition Zposition Zrotation Yrotation Xrotation 
	JOINT Hips
	{
		OFFSET 0.000000 0.000000 0.000000
		CHANNELS 6 Xposition Yposition Zposition Zrotation Yrotation Xrotation 
		JOINT RightUpLeg
		{
			OFFSET 0.103458 1.857820 10.548502
			CHANNELS 3 Zrotation Yrotation Xrotation
			JOINT RightLeg
			{
				OFFSET 43.500000 -0.000023 -0.000011
				CHANNELS 3 Zrotation Yrotation Xrotation
				JOINT RightFoot
				{
					OFFSET 42.372192 0.000038 0.000002
					CHANNELS 3 Zrotation Yrotation Xrotation
					JOINT RightToe
					{
						OFFSET 17.299992 -0.000004 0.000006
						CHANNELS 3 Zrotation Yrotation Xrotation
						End Site
						{
							OFFSET 0.000000 0.000000 0.000000
						}
					}
				}
			}
		}
		JOINT LeftUpLeg
		{
			OFFSET 0.103461 1.857814 -10.548508
			CHANNELS 3 Zrotation Yrotation Xrotation
			JOINT LeftLeg
			{
				OFFSET 43.500042 -0.000015 0.000008
				CHANNELS 3 Zrotation Yrotation Xrotation
				JOINT LeftFoot
				{
					OFFSET 42.372253 0.000008 0.000006
					CHANNELS 3 Zrotation Yrotation Xrotation
					JOINT LeftToe
					{
						OFFSET 17.299973 -0.000014 0.000011
						CHANNELS 3 Zrotation Yrotation Xrotation
						End Site
						{
							OFFSET 0.000000 0.000000 0.000000
						}
					}
				}
			}
		}
		JOINT Spine
		{
			OFFSET 6.901966 -2.603737 -0.000007
			CHANNELS 3 Zrotation Yrotation Xrotation
			JOINT Spine1
			{
				OFFSET 12.588102 0.000017 0.000001
				CHANNELS 3 Zrotation Yrotation Xrotation
				JOINT Spine2
				{
					OFFSET 12.343197 -0.000013 0.000000
					CHANNELS 3 Zrotation Yrotation Xrotation
					JOINT Neck
					{
						OFFSET 25.832905 -0.000008 0.000000
						CHANNELS 3 Zrotation Yrotation Xrotation
						JOINT Head
						{
							OFFSET 11.766610 0.000009 -0.000002
							CHANNELS 3 Zrotation Yrotation Xrotation
							End Site
							{
								OFFSET 0.000000 0.000000 0.000000
							}
						}
					}
					JOINT RightShoulder
					{
						OFFSET 19.745903 -1.480377 6.000115
						CHANNELS 3 Zrotation Yrotation Xrotation
						JOINT RightArm
						{
							OFFSET 11.284125 -0.000014 -0.000024
							CHANNELS 3 Zrotation Yrotation Xrotation
							JOINT RightForeArm
							{
								OFFSET 33.000046 -0.000012 0.000029
								CHANNELS 3 Zrotation Yrotation Xrotation
								JOINT RightHand
								{
									OFFSET 25.199989 0.000034 0.000012
									CHANNELS 3 Zrotation Yrotation Xrotation
									End Site
									{
										OFFSET 0.000000 0.000000 0.000000
									}
								}
							}
						}
					}
					JOINT LeftShoulder
					{
						OFFSET 19.746098 -1.480362 -6.000071
						CHANNELS 3 Zrotation Yrotation Xrotation
						JOINT LeftArm
						{
							OFFSET 11.284137 -0.000006 -0.000008
							CHANNELS 3 Zrotation Yrotation Xrotation
							JOINT LeftForeArm
							{
								OFFSET 33.000095 0.000017 0.000000
								CHANNELS 3 Zrotation Yrotation Xrotation
								JOINT LeftHand
								{
									OFFSET 25.199778 0.000144 0.000423
									CHANNELS 3 Zrotation Yrotation Xrotation
									End Site
									{
										OFFSET 0.000000 0.000000 0.000000
									}
								}
							}
						}
					}
				}
			}
		}
	}
}
MOTION
Frames: 6
Frame Time: 0.016667
-181.556113 0.000000 -390.677374 0.000000 -75.812644 0.000000 -0.563502 88.155651 -2.025785 97.253828 -5.145901 179.331610 170.057265 -2.935230 -177.124041 -32.979364 -7.904148 -4.138037 82.701394 2.283971 -3.697921 21.454560 0.003101 0.000017 167.199156 4.218631 179.944151 -79.811188 -0.578196 -0.866239 65.932319 1.770068 2.843314 21.454558 -0.003094 -0.000002 10.738864 -1.177277 -0.887933 11.485790 -2.260421 -1.888780 11.167620 -2.271930 -1.875090 0.407480 -0.008503 2.761202 -7.509111 -2.309846 3.436892 -165.115963 -69.661724 -16.704323 -22.922137 46.000563 19.991360 -22.766455 -13.857626 1.062011 13.248100 3.875964 19.357148 -168.040222 74.347263 13.718012 -29.988136 -54.644768 -9.529475 -31.976321 15.880901 -1.327351 12.632379 11.822106 -16.515381 
-180.686828 0.000000 -389.181375 0.000000 -76.835325 0.000000 -0.422265 88.532784 -1.888743 97.356792 -4.582252 179.424989 172.129701 -3.302084 -177.247862 -31.969359 -7.890271 -4.622487 83.359377 2.621792 -3.790706 21.454558 0.003100 0.000017 164.948017 3.968403 -179.035118 -79.996534 -0.255229 0.624440 65.910676 0.845073 3.328393 21.454555 -0.003100 0.000000 10.674512 -1.036681 -0.982559 11.355653 -1.971741 -2.062472 11.037573 -1.984303 -2.050521 0.450446 0.459945 3.128435 -6.975611 -3.062787 4.078437 -164.885997 -69.847117 -16.939925 -22.621377 46.466479 20.464974 -23.340756 -14.339115 1.100503 13.558861 3.664261 24.339661 -166.629034 74.092112 15.164923 -27.677102 -54.868144 -11.797306 -31.398242 15.808558 -1.309374 12.966166 10.933911 -14.173885 
-179.839506 0.000000 -387.655801 0.000000 -77.819044 0.000000 -0.336879 88.836459 -1.754274 97.312362 -4.161459 179.373980 174.062346 -3.485684 -177.319817 -30.868698 -7.915955 -5.232211 83.938641 3.033712 -3.932484 21.454560 0.003100 0.000018 162.666180 3.810072 -178.295438 -79.518010 0.144150 1.751846 65.432635 0.238698 3.907609 21.454552 -0.003094 0.000002 10.588720 -0.915882 -1.045151 11.182284 -1.726308 -2.174181 10.864276 -1.739542 -2.163726 0.538886 0.869743 3.481458 -6.770114 -3.794297 4.694645 -164.477538 -70.115250 -17.359421 -22.244631 47.063953 20.930333 -24.436785 -14.914557 1.153049 13.716559 3.229516 28.574497 -165.403519 73.968960 16.421827 -25.208204 -55.023979 -13.998942 -30.953701 15.546362 -1.282601 13.243074 10.158132 -12.081497 
-179.019199 0.000000 -386.101653 0.000000 -78.765227 0.000000 -0.287723 89.081444 -1.633349 97.219757 -3.811201 179.248993 175.969715 -3.569200 -177.634301 -29.695192 -7.838329 -5.760969 84.448376 3.382696 -4.069146 21.454562 0.003102 0.000020 160.484584 3.689109 -177.655707 -78.401555 0.527641 2.386487 64.936547 -0.117025 4.184592 21.454551 -0.003085 0.000000 10.508352 -0.805466 -1.086963 11.019583 -1.503624 -2.245865 10.701633 -1.517288 -2.236768 0.656420 1.301677 3.813043 -6.756403 -4.478881 5.285850 -163.961053 -70.397609 -17.890020 -21.822064 47.617991 21.512954 -25.852012 -15.498425 1.213134 13.490295 2.719779 30.940940 -164.586070 73.862830 17.260678 -22.630969 -55.030972 -16.284541 -30.565160 15.237406 -1.255970 13.389401 9.429992 -10.627774 
-178.234871 0.000000 -384.517673 0.000000 -79.672969 0.000000 -0.260139 89.285599 -1.537690 97.168266 -3.450748 179.127348 177.947486 -3.634865 -178.445489 -28.472099 -7.546762 -6.013434 84.898956 3.542596 -4.154015 21.454560 0.003107 0.000020 158.518952 3.541511 -176.972531 -76.660409 0.866840 2.480182 64.771831 -0.300630 3.914960 21.454552 -0.003083 -0.000007 10.456265 -0.693293 -1.119322 10.913231 -1.277803 -2.299161 10.595326 -1.291794 -2.291425 0.764656 1.833272 4.116730 -6.739023 -5.098903 5.847010 -163.456664 -70.618787 -18.408082 -21.353631 47.971266 22.269897 -27.437095 -16.035112 1.273932 12.720928 2.252544 30.684663 -164.371072 73.673690 17.482614 -20.014458 -54.824313 -18.762020 -30.160104 15.043180 -1.236414 13.318110 8.630312 -10.141312 
-177.492610 0.000000 -382.903338 0.000000 -80.541875 0.000000 -0.264923 89.429710 -1.466278 97.095035 -3.116476 179.049267 179.880654 -3.658901 -179.458344 -27.253688 -7.206700 -6.103228 85.329402 3.600347 -4.186111 21.454558 0.003112 0.000019 156.721067 3.409896 -176.339611 -74.334000 1.235872 2.157541 64.989290 -0.281940 3.418865 21.454553 -0.003085 -0.000011 10.417710 -0.578555 -1.154611 10.833845 -1.046333 -2.358403 10.515979 -1.060690 -2.352055 0.803948 2.333835 4.385584 -6.677309 -5.621216 6.338632 -163.150037 -70.732213 -18.723031 -20.827741 48.108727 22.976668 -29.169811 -16.486029 1.334964 11.702191 1.882067 28.340267 -164.331045 73.494997 17.525025 -17.573715 -54.511369 -20.983494 -29.727270 14.797004 -1.211421 12.995294 7.864789 -10.523707 
